<mxfile host="app.diagrams.net" agent="Mozilla/5.0 (Windows NT 10.0; Win64; x64) AppleWebKit/537.36 (KHTML, like Gecko) Chrome/141.0.0.0 Safari/537.36" version="27.0.6">
  <diagram name="Halaman-1" id="mRXUVVt0Z1CRouVqb5Yb">
    <mxGraphModel dx="786" dy="463" grid="1" gridSize="10" guides="1" tooltips="1" connect="1" arrows="1" fold="1" page="1" pageScale="1" pageWidth="827" pageHeight="1169" math="0" shadow="0">
      <root>
        <mxCell id="0" />
        <mxCell id="1" parent="0" />
        <mxCell id="6v8h-YrekyooNEP45oSq-3" value="" style="edgeStyle=orthogonalEdgeStyle;rounded=0;orthogonalLoop=1;jettySize=auto;html=1;" edge="1" parent="1" source="6v8h-YrekyooNEP45oSq-1" target="6v8h-YrekyooNEP45oSq-2">
          <mxGeometry relative="1" as="geometry" />
        </mxCell>
        <mxCell id="6v8h-YrekyooNEP45oSq-1" value="START" style="strokeWidth=2;html=1;shape=mxgraph.flowchart.start_1;whiteSpace=wrap;" vertex="1" parent="1">
          <mxGeometry x="280" y="50" width="140" height="80" as="geometry" />
        </mxCell>
        <mxCell id="6v8h-YrekyooNEP45oSq-6" style="edgeStyle=orthogonalEdgeStyle;rounded=0;orthogonalLoop=1;jettySize=auto;html=1;" edge="1" parent="1" source="6v8h-YrekyooNEP45oSq-2" target="6v8h-YrekyooNEP45oSq-5">
          <mxGeometry relative="1" as="geometry" />
        </mxCell>
        <mxCell id="6v8h-YrekyooNEP45oSq-2" value="Entri&lt;br&gt;&lt;div&gt;pemesanan obat&lt;/div&gt;" style="shape=parallelogram;perimeter=parallelogramPerimeter;whiteSpace=wrap;html=1;fixedSize=1;" vertex="1" parent="1">
          <mxGeometry x="280" y="190" width="140" height="70" as="geometry" />
        </mxCell>
        <mxCell id="6v8h-YrekyooNEP45oSq-5" value="Database" style="shape=parallelogram;html=1;strokeWidth=2;perimeter=parallelogramPerimeter;whiteSpace=wrap;rounded=1;arcSize=12;size=0.23;" vertex="1" parent="1">
          <mxGeometry x="450" y="270" width="100" height="60" as="geometry" />
        </mxCell>
        <mxCell id="6v8h-YrekyooNEP45oSq-7" value="Uploadable&lt;div&gt;Dokumen to email&lt;/div&gt;" style="strokeWidth=2;html=1;shape=mxgraph.flowchart.document2;whiteSpace=wrap;size=0.25;" vertex="1" parent="1">
          <mxGeometry x="460" y="400" width="100" height="60" as="geometry" />
        </mxCell>
        <mxCell id="6v8h-YrekyooNEP45oSq-11" style="edgeStyle=orthogonalEdgeStyle;rounded=0;orthogonalLoop=1;jettySize=auto;html=1;exitX=0.5;exitY=1;exitDx=0;exitDy=0;entryX=0.393;entryY=-0.067;entryDx=0;entryDy=0;entryPerimeter=0;" edge="1" parent="1" source="6v8h-YrekyooNEP45oSq-5" target="6v8h-YrekyooNEP45oSq-7">
          <mxGeometry relative="1" as="geometry" />
        </mxCell>
      </root>
    </mxGraphModel>
  </diagram>
</mxfile>
